<?xml version="1.0" encoding="UTF-8"?>
<!-- Created with Inkscape (http://www.inkscape.org/) -->
<svg width="512" height="512" version="1.1" viewBox="0 0 135.47 135.47" xmlns="http://www.w3.org/2000/svg" xmlns:cc="http://creativecommons.org/ns#" xmlns:dc="http://purl.org/dc/elements/1.1/" xmlns:rdf="http://www.w3.org/1999/02/22-rdf-syntax-ns#">
 <title>Nashira Deer Logomark</title>
 <g fill="none" stroke="#a0f" stroke-linecap="round" stroke-linejoin="round" stroke-miterlimit="12" stroke-width="3.3073">
  <path d="m51.858 104.78 5.0271 7.1438 1.0583 8.7312 6.0854 5.2917h7.4083l6.0854-5.2917 1.0583-8.7312 5.0271-7.1438 2.6458-16.933 13.494-2.3812 9.525-6.6146 2.6458-15.346-16.404 1.8521-11.906 6.6146-5.2917-4.2333 2.6458-5.0271 20.637-6.6146 19.579-15.346 1.0583-21.167-5.5562 16.404-8.2021-9.7896 1.8521-16.933-7.6729 18.785 9.2604 11.112-11.906 11.377-4.4979-8.7312-15.081-13.229 9.2604 14.817 4.7625 8.7312-19.844 7.6729-3.7042 6.6146h-6.35l-3.7042-6.6146-19.844-7.6729 4.7625-8.7312 10.383-13.601-16.204 12.013-4.4979 8.7312-11.906-11.377 9.2604-11.112-7.6729-18.785 1.8521 16.933-8.2021 9.7896-5.5562-16.404 1.0583 21.167 19.579 15.346 20.638 6.6146 2.6458 5.2917-5.2917 3.9688-11.906-6.6146-16.404-1.8521 2.6458 15.346 9.525 6.6146 13.494 2.3812z" style="paint-order:normal"/>
  <path d="m39.952 41.804 5.5562 1.5875z"/>
  <path d="m18.785 35.983 4.7625 3.175z"/>
  <path d="m18.785 35.983-3.9601 4.5362z"/>
  <path d="m26.988 26.194 5.8208 1.8521z"/>
  <path d="m95.515 41.804-5.5562 1.5875z"/>
  <path d="m116.68 35.983 4.4979 4.7625z"/>
  <path d="m111.92 39.158 4.7625-3.175z"/>
  <path d="m102.66 28.046 5.8208-1.8521z"/>
  <path d="m93.663 52.388 7.1437-2.9104"/>
  <path d="m94.456 52.123 6.0854 4.2333z"/>
  <path d="m34.66 49.477 7.1438 2.9104"/>
  <path d="m34.925 56.356 6.0854-4.2333z"/>
  <path d="m100.01 50.535 4.4979 3.175"/>
  <path d="m35.454 50.535-4.4979 3.175"/>
  <path d="m111.92 39.158 4.4979 5.0271z"/>
  <path d="m19.05 44.185 4.4979-5.0271"/>
  <path d="m74.613 59.796 6.35 2.9104"/>
  <path d="m26.194 78.846 13.758-13.494"/>
  <path d="m35.719 85.46 16.14-13.494"/>
  <path d="m95.515 65.352 13.758 13.494"/>
  <path d="m83.608 71.967 16.14 13.494"/>
  <path d="m49.213 87.842 13.229 4.2333h10.583l13.229-4.2333"/>
  <path d="m57.15 67.998 5.2917 24.077"/>
  <path d="m78.317 67.733-5.2917 24.342"/>
  <path d="m51.858 104.78 9.7896 2.1167h12.171l9.7896-2.1167"/>
  <path d="m56.885 111.92 6.6146 1.5875h8.4667l6.6146-1.5875"/>
  <path d="m64.029 125.94-0.52917-12.435"/>
  <path d="m61.648 106.89 1.8521 6.6146"/>
  <path d="m71.967 113.51 1.8521-6.6146"/>
  <path d="m62.442 92.075-0.79375 14.817"/>
  <path d="m73.025 92.075 0.79375 14.817"/>
  <path d="m71.438 125.94 0.52917-12.435"/>
  <path d="m64.558 66.41-2.1167 25.665"/>
  <path d="m70.908 66.41 2.1167 25.665"/>
  <path d="m83.608 71.967 2.6458 15.875"/>
  <path d="m51.858 71.967-2.6458 15.875"/>
  <path d="m57.15 67.998 7.4083-1.5875"/>
  <path d="m70.908 66.41 7.4083 1.3229"/>
  <path d="m54.504 62.706 6.35-2.9104"/>
 </g>
 <metadata>
  <rdf:RDF>
   <cc:Work rdf:about="">
    <dc:title>Nashira Deer Logomark</dc:title>
    <dc:date>1/07/2021</dc:date>
    <dc:creator>
     <cc:Agent>
      <dc:title>Nashira Deer</dc:title>
     </cc:Agent>
    </dc:creator>
    <dc:rights>
     <cc:Agent>
      <dc:title>© Nashira Deer 2021. All rights reserved.</dc:title>
     </cc:Agent>
    </dc:rights>
    <dc:publisher>
     <cc:Agent>
      <dc:title>Nashira Deer</dc:title>
     </cc:Agent>
    </dc:publisher>
    <dc:identifier>Logomark</dc:identifier>
    <dc:source>Deer (Animal)</dc:source>
    <dc:language>Universal</dc:language>
    <dc:subject>
     <rdf:Bag>
      <rdf:li>Nashira Deer Logomark</rdf:li>
     </rdf:Bag>
    </dc:subject>
    <dc:description>Logomark to Nashira Deer based on the animal deer.</dc:description>
    <dc:contributor>
     <cc:Agent>
      <dc:title>Nashira Deer</dc:title>
     </cc:Agent>
    </dc:contributor>
    <cc:license rdf:resource="http://creativecommons.org/licenses/by-nc-nd/4.0/"/>
   </cc:Work>
   <cc:License rdf:about="http://creativecommons.org/licenses/by-nc-nd/4.0/">
    <cc:permits rdf:resource="http://creativecommons.org/ns#Reproduction"/>
    <cc:permits rdf:resource="http://creativecommons.org/ns#Distribution"/>
    <cc:requires rdf:resource="http://creativecommons.org/ns#Notice"/>
    <cc:requires rdf:resource="http://creativecommons.org/ns#Attribution"/>
    <cc:prohibits rdf:resource="http://creativecommons.org/ns#CommercialUse"/>
   </cc:License>
  </rdf:RDF>
 </metadata>
</svg>
